<mxfile host="app.diagrams.net" modified="2022-07-20T13:29:53.671Z" agent="5.0 (Macintosh; Intel Mac OS X 10_13_6) AppleWebKit/605.1.15 (KHTML, like Gecko) Version/13.1.2 Safari/605.1.15" etag="4_Pvch6BC0t-67aPCP23" version="20.1.3" type="github">
  <diagram name="Page-1" id="c7558073-3199-34d8-9f00-42111426c3f3">
    <mxGraphModel dx="878" dy="634" grid="1" gridSize="10" guides="1" tooltips="1" connect="1" arrows="1" fold="1" page="1" pageScale="1" pageWidth="826" pageHeight="1169" background="none" math="0" shadow="0">
      <root>
        <mxCell id="0" />
        <mxCell id="1" parent="0" />
        <mxCell id="BxefesWGFPJ47FyZC_82-163" value="" style="curved=1;endArrow=none;html=1;strokeColor=#3700CC;strokeWidth=4;fillColor=#6a00ff;endFill=0;" edge="1" parent="1">
          <mxGeometry width="50" height="50" relative="1" as="geometry">
            <mxPoint x="160" y="715" as="sourcePoint" />
            <mxPoint x="540" y="497" as="targetPoint" />
            <Array as="points">
              <mxPoint x="330" y="706" />
              <mxPoint x="400" y="707" />
              <mxPoint x="400" y="387" />
              <mxPoint x="420" y="687" />
              <mxPoint x="440" y="667" />
              <mxPoint x="470" y="597" />
            </Array>
          </mxGeometry>
        </mxCell>
        <mxCell id="BxefesWGFPJ47FyZC_82-97" value="" style="endArrow=none;html=1;rounded=0;fillColor=#dae8fc;strokeColor=#6c8ebf;strokeWidth=2;" edge="1" parent="1">
          <mxGeometry width="50" height="50" relative="1" as="geometry">
            <mxPoint x="160" y="420" as="sourcePoint" />
            <mxPoint x="160" y="720" as="targetPoint" />
          </mxGeometry>
        </mxCell>
        <mxCell id="BxefesWGFPJ47FyZC_82-139" style="edgeStyle=orthogonalEdgeStyle;rounded=0;orthogonalLoop=1;jettySize=auto;html=1;strokeWidth=3;fillColor=#dae8fc;strokeColor=#6c8ebf;" edge="1" parent="1" source="BxefesWGFPJ47FyZC_82-98">
          <mxGeometry relative="1" as="geometry">
            <mxPoint x="230" y="560" as="targetPoint" />
          </mxGeometry>
        </mxCell>
        <mxCell id="BxefesWGFPJ47FyZC_82-98" value="Water pressure&lt;br&gt;(sensor&lt;br&gt;resistance)" style="text;html=1;align=center;verticalAlign=middle;resizable=0;points=[];autosize=1;strokeColor=#6c8ebf;fillColor=#dae8fc;" vertex="1" parent="1">
          <mxGeometry x="50" y="320" width="110" height="60" as="geometry" />
        </mxCell>
        <mxCell id="BxefesWGFPJ47FyZC_82-99" value="" style="endArrow=classicThin;html=1;rounded=0;endFill=1;" edge="1" parent="1">
          <mxGeometry width="50" height="50" relative="1" as="geometry">
            <mxPoint x="160" y="720" as="sourcePoint" />
            <mxPoint x="820" y="720" as="targetPoint" />
          </mxGeometry>
        </mxCell>
        <mxCell id="BxefesWGFPJ47FyZC_82-101" value="Time" style="text;html=1;align=center;verticalAlign=middle;resizable=0;points=[];autosize=1;strokeColor=none;fillColor=none;strokeWidth=5;fontSize=19;" vertex="1" parent="1">
          <mxGeometry x="720" y="715" width="70" height="40" as="geometry" />
        </mxCell>
        <mxCell id="BxefesWGFPJ47FyZC_82-102" value="" style="endArrow=none;html=1;rounded=0;fillColor=#f8cecc;strokeColor=#b85450;exitX=1;exitY=1;exitDx=0;exitDy=0;" edge="1" parent="1" source="BxefesWGFPJ47FyZC_82-103">
          <mxGeometry width="50" height="50" relative="1" as="geometry">
            <mxPoint x="820" y="485" as="sourcePoint" />
            <mxPoint x="820" y="725" as="targetPoint" />
          </mxGeometry>
        </mxCell>
        <mxCell id="BxefesWGFPJ47FyZC_82-103" value="Pump working" style="text;html=1;strokeColor=#b85450;fillColor=#f8cecc;align=center;verticalAlign=middle;whiteSpace=wrap;rounded=0;" vertex="1" parent="1">
          <mxGeometry x="760" y="335" width="60" height="30" as="geometry" />
        </mxCell>
        <mxCell id="BxefesWGFPJ47FyZC_82-104" value="" style="endArrow=none;html=1;strokeWidth=2;fillColor=#dae8fc;strokeColor=#6c8ebf;curved=1;endFill=0;" edge="1" parent="1">
          <mxGeometry width="50" height="50" relative="1" as="geometry">
            <mxPoint x="160" y="520" as="sourcePoint" />
            <mxPoint x="440" y="610" as="targetPoint" />
            <Array as="points">
              <mxPoint x="230" y="560" />
              <mxPoint x="300" y="590" />
              <mxPoint x="380" y="590" />
            </Array>
          </mxGeometry>
        </mxCell>
        <mxCell id="BxefesWGFPJ47FyZC_82-105" value="" style="endArrow=none;dashed=1;html=1;strokeWidth=2;rounded=0;fillColor=#dae8fc;strokeColor=#6c8ebf;" edge="1" parent="1">
          <mxGeometry width="50" height="50" relative="1" as="geometry">
            <mxPoint x="170" y="520" as="sourcePoint" />
            <mxPoint x="170" y="720" as="targetPoint" />
          </mxGeometry>
        </mxCell>
        <mxCell id="BxefesWGFPJ47FyZC_82-106" value="" style="endArrow=none;dashed=1;html=1;dashPattern=1 3;strokeWidth=2;rounded=0;startArrow=none;" edge="1" parent="1" source="BxefesWGFPJ47FyZC_82-120">
          <mxGeometry width="50" height="50" relative="1" as="geometry">
            <mxPoint x="320" y="720" as="sourcePoint" />
            <mxPoint x="320" y="590" as="targetPoint" />
          </mxGeometry>
        </mxCell>
        <mxCell id="BxefesWGFPJ47FyZC_82-123" style="edgeStyle=orthogonalEdgeStyle;rounded=0;orthogonalLoop=1;jettySize=auto;html=1;entryX=0.493;entryY=0.933;entryDx=0;entryDy=0;entryPerimeter=0;strokeWidth=2;" edge="1" parent="1" source="BxefesWGFPJ47FyZC_82-107" target="BxefesWGFPJ47FyZC_82-120">
          <mxGeometry relative="1" as="geometry" />
        </mxCell>
        <mxCell id="BxefesWGFPJ47FyZC_82-107" value="open water 1" style="text;html=1;align=center;verticalAlign=middle;resizable=0;points=[];autosize=1;strokeColor=#82b366;fillColor=#d5e8d4;" vertex="1" parent="1">
          <mxGeometry x="170" y="640" width="90" height="30" as="geometry" />
        </mxCell>
        <mxCell id="BxefesWGFPJ47FyZC_82-124" style="edgeStyle=orthogonalEdgeStyle;rounded=0;orthogonalLoop=1;jettySize=auto;html=1;strokeWidth=2;" edge="1" parent="1" source="BxefesWGFPJ47FyZC_82-108">
          <mxGeometry relative="1" as="geometry">
            <mxPoint x="510" y="644.9999999999998" as="targetPoint" />
          </mxGeometry>
        </mxCell>
        <mxCell id="BxefesWGFPJ47FyZC_82-108" value="open water 2" style="text;html=1;align=center;verticalAlign=middle;resizable=0;points=[];autosize=1;strokeColor=#82b366;fillColor=#d5e8d4;" vertex="1" parent="1">
          <mxGeometry x="360" y="630" width="90" height="30" as="geometry" />
        </mxCell>
        <mxCell id="BxefesWGFPJ47FyZC_82-109" value="" style="endArrow=none;dashed=1;html=1;strokeWidth=2;rounded=0;" edge="1" parent="1">
          <mxGeometry width="50" height="50" relative="1" as="geometry">
            <mxPoint x="360" y="719.9999999999998" as="sourcePoint" />
            <mxPoint x="360" y="589.9999999999998" as="targetPoint" />
          </mxGeometry>
        </mxCell>
        <mxCell id="BxefesWGFPJ47FyZC_82-110" value="" style="endArrow=none;dashed=1;html=1;dashPattern=1 3;strokeWidth=2;rounded=0;fillColor=#dae8fc;strokeColor=#6c8ebf;" edge="1" parent="1">
          <mxGeometry width="50" height="50" relative="1" as="geometry">
            <mxPoint x="510" y="720" as="sourcePoint" />
            <mxPoint x="510" y="560" as="targetPoint" />
          </mxGeometry>
        </mxCell>
        <mxCell id="BxefesWGFPJ47FyZC_82-111" value="" style="endArrow=none;html=1;rounded=0;strokeWidth=2;fillColor=#f8cecc;strokeColor=#b85450;" edge="1" parent="1">
          <mxGeometry width="50" height="50" relative="1" as="geometry">
            <mxPoint x="160" y="710" as="sourcePoint" />
            <mxPoint x="400" y="710" as="targetPoint" />
          </mxGeometry>
        </mxCell>
        <mxCell id="BxefesWGFPJ47FyZC_82-112" value="" style="endArrow=none;html=1;rounded=0;strokeWidth=2;fillColor=#f8cecc;strokeColor=#b85450;" edge="1" parent="1">
          <mxGeometry width="50" height="50" relative="1" as="geometry">
            <mxPoint x="400" y="710" as="sourcePoint" />
            <mxPoint x="400" y="690" as="targetPoint" />
          </mxGeometry>
        </mxCell>
        <mxCell id="BxefesWGFPJ47FyZC_82-113" value="" style="endArrow=none;html=1;rounded=0;strokeWidth=2;fillColor=#f8cecc;strokeColor=#b85450;" edge="1" parent="1">
          <mxGeometry width="50" height="50" relative="1" as="geometry">
            <mxPoint x="600" y="690" as="sourcePoint" />
            <mxPoint x="400" y="690" as="targetPoint" />
            <Array as="points">
              <mxPoint x="500" y="690" />
            </Array>
          </mxGeometry>
        </mxCell>
        <mxCell id="BxefesWGFPJ47FyZC_82-114" value="" style="curved=1;endArrow=none;html=1;rounded=0;strokeWidth=2;fillColor=#dae8fc;strokeColor=#6c8ebf;endFill=0;" edge="1" parent="1">
          <mxGeometry width="50" height="50" relative="1" as="geometry">
            <mxPoint x="440" y="610" as="sourcePoint" />
            <mxPoint x="660" y="480" as="targetPoint" />
            <Array as="points">
              <mxPoint x="490" y="600" />
              <mxPoint x="540" y="500" />
            </Array>
          </mxGeometry>
        </mxCell>
        <mxCell id="BxefesWGFPJ47FyZC_82-116" value="" style="endArrow=none;html=1;rounded=0;strokeWidth=2;fillColor=#f8cecc;strokeColor=#b85450;" edge="1" parent="1">
          <mxGeometry width="50" height="50" relative="1" as="geometry">
            <mxPoint x="600" y="690" as="sourcePoint" />
            <mxPoint x="600" y="710" as="targetPoint" />
          </mxGeometry>
        </mxCell>
        <mxCell id="BxefesWGFPJ47FyZC_82-117" value="" style="endArrow=none;dashed=1;html=1;rounded=0;strokeWidth=2;fillColor=#ffe6cc;strokeColor=#d79b00;" edge="1" parent="1">
          <mxGeometry width="50" height="50" relative="1" as="geometry">
            <mxPoint x="130" y="600" as="sourcePoint" />
            <mxPoint x="820" y="600" as="targetPoint" />
          </mxGeometry>
        </mxCell>
        <mxCell id="BxefesWGFPJ47FyZC_82-119" value="" style="endArrow=none;html=1;rounded=0;strokeWidth=2;fillColor=#f8cecc;strokeColor=#b85450;" edge="1" parent="1">
          <mxGeometry width="50" height="50" relative="1" as="geometry">
            <mxPoint x="600" y="709.9999999999998" as="sourcePoint" />
            <mxPoint x="660" y="710" as="targetPoint" />
          </mxGeometry>
        </mxCell>
        <mxCell id="BxefesWGFPJ47FyZC_82-120" value="no consumption" style="text;html=1;align=center;verticalAlign=middle;resizable=0;points=[];autosize=1;strokeColor=#d6b656;fillColor=#fff2cc;rotation=90;" vertex="1" parent="1">
          <mxGeometry x="280" y="640" width="110" height="30" as="geometry" />
        </mxCell>
        <mxCell id="BxefesWGFPJ47FyZC_82-121" value="" style="endArrow=none;dashed=1;html=1;dashPattern=1 3;strokeWidth=2;rounded=0;" edge="1" parent="1" target="BxefesWGFPJ47FyZC_82-120">
          <mxGeometry width="50" height="50" relative="1" as="geometry">
            <mxPoint x="320" y="719.9999999999998" as="sourcePoint" />
            <mxPoint x="320" y="589.9999999999998" as="targetPoint" />
          </mxGeometry>
        </mxCell>
        <mxCell id="BxefesWGFPJ47FyZC_82-125" value="no consumption" style="text;html=1;align=center;verticalAlign=middle;resizable=0;points=[];autosize=1;strokeColor=#d6b656;fillColor=#fff2cc;rotation=90;" vertex="1" parent="1">
          <mxGeometry x="470" y="640" width="110" height="30" as="geometry" />
        </mxCell>
        <mxCell id="BxefesWGFPJ47FyZC_82-134" style="edgeStyle=orthogonalEdgeStyle;rounded=0;orthogonalLoop=1;jettySize=auto;html=1;strokeWidth=3;fillColor=#fff2cc;strokeColor=#d6b656;" edge="1" parent="1" source="BxefesWGFPJ47FyZC_82-127">
          <mxGeometry relative="1" as="geometry">
            <mxPoint x="210" y="599.9999999999998" as="targetPoint" />
          </mxGeometry>
        </mxCell>
        <mxCell id="BxefesWGFPJ47FyZC_82-127" value="Low pressure to start pump" style="text;html=1;strokeColor=#d6b656;fillColor=#fff2cc;align=center;verticalAlign=middle;whiteSpace=wrap;rounded=0;" vertex="1" parent="1">
          <mxGeometry x="90" y="530" width="60" height="69" as="geometry" />
        </mxCell>
        <mxCell id="BxefesWGFPJ47FyZC_82-128" value="" style="endArrow=none;dashed=1;html=1;rounded=0;strokeWidth=2;fillColor=#ffe6cc;strokeColor=#d79b00;" edge="1" parent="1">
          <mxGeometry width="50" height="50" relative="1" as="geometry">
            <mxPoint x="160" y="489.9999999999998" as="sourcePoint" />
            <mxPoint x="820" y="490" as="targetPoint" />
          </mxGeometry>
        </mxCell>
        <mxCell id="BxefesWGFPJ47FyZC_82-133" style="edgeStyle=orthogonalEdgeStyle;rounded=0;orthogonalLoop=1;jettySize=auto;html=1;strokeWidth=3;fillColor=#fff2cc;strokeColor=#d6b656;" edge="1" parent="1" source="BxefesWGFPJ47FyZC_82-130">
          <mxGeometry relative="1" as="geometry">
            <mxPoint x="730" y="490" as="targetPoint" />
          </mxGeometry>
        </mxCell>
        <mxCell id="BxefesWGFPJ47FyZC_82-130" value="High pressure to stop pump" style="text;html=1;strokeColor=#d6b656;fillColor=#fff2cc;align=center;verticalAlign=middle;whiteSpace=wrap;rounded=0;" vertex="1" parent="1">
          <mxGeometry x="750" y="500" width="60" height="69" as="geometry" />
        </mxCell>
        <mxCell id="BxefesWGFPJ47FyZC_82-131" value="" style="endArrow=none;dashed=1;html=1;rounded=0;strokeWidth=3;fillColor=#f8cecc;strokeColor=#b85450;" edge="1" parent="1">
          <mxGeometry width="50" height="50" relative="1" as="geometry">
            <mxPoint x="130" y="679.9999999999998" as="sourcePoint" />
            <mxPoint x="820" y="679.9999999999998" as="targetPoint" />
          </mxGeometry>
        </mxCell>
        <mxCell id="BxefesWGFPJ47FyZC_82-132" value="" style="endArrow=none;dashed=1;html=1;rounded=0;strokeWidth=3;fillColor=#f8cecc;strokeColor=#b85450;" edge="1" parent="1">
          <mxGeometry width="50" height="50" relative="1" as="geometry">
            <mxPoint x="136" y="449.9999999999998" as="sourcePoint" />
            <mxPoint x="820" y="450" as="targetPoint" />
          </mxGeometry>
        </mxCell>
        <mxCell id="BxefesWGFPJ47FyZC_82-136" style="edgeStyle=orthogonalEdgeStyle;rounded=0;orthogonalLoop=1;jettySize=auto;html=1;strokeWidth=3;fillColor=#f8cecc;strokeColor=#b85450;" edge="1" parent="1" source="BxefesWGFPJ47FyZC_82-135">
          <mxGeometry relative="1" as="geometry">
            <mxPoint x="200" y="680" as="targetPoint" />
            <Array as="points">
              <mxPoint x="200" y="714" />
            </Array>
          </mxGeometry>
        </mxCell>
        <mxCell id="BxefesWGFPJ47FyZC_82-135" value="Lower&lt;br&gt;LO&lt;br&gt;Alarm" style="text;html=1;strokeColor=#b85450;fillColor=#f8cecc;align=center;verticalAlign=middle;whiteSpace=wrap;rounded=0;" vertex="1" parent="1">
          <mxGeometry x="80" y="680" width="60" height="69" as="geometry" />
        </mxCell>
        <mxCell id="BxefesWGFPJ47FyZC_82-138" style="edgeStyle=orthogonalEdgeStyle;rounded=0;orthogonalLoop=1;jettySize=auto;html=1;strokeWidth=3;fillColor=#f8cecc;strokeColor=#b85450;" edge="1" parent="1" source="BxefesWGFPJ47FyZC_82-137">
          <mxGeometry relative="1" as="geometry">
            <mxPoint x="210" y="450" as="targetPoint" />
            <Array as="points">
              <mxPoint x="210" y="484" />
            </Array>
          </mxGeometry>
        </mxCell>
        <mxCell id="BxefesWGFPJ47FyZC_82-137" value="HiHi&lt;br&gt;Alarm" style="text;html=1;strokeColor=#b85450;fillColor=#f8cecc;align=center;verticalAlign=middle;whiteSpace=wrap;rounded=0;" vertex="1" parent="1">
          <mxGeometry x="80" y="450" width="60" height="69" as="geometry" />
        </mxCell>
        <mxCell id="BxefesWGFPJ47FyZC_82-140" value="" style="endArrow=none;html=1;rounded=0;strokeWidth=2;fillColor=#f8cecc;strokeColor=#b85450;" edge="1" parent="1">
          <mxGeometry width="50" height="50" relative="1" as="geometry">
            <mxPoint x="660" y="690" as="sourcePoint" />
            <mxPoint x="660" y="708.9999999999998" as="targetPoint" />
          </mxGeometry>
        </mxCell>
        <mxCell id="BxefesWGFPJ47FyZC_82-142" value="" style="endArrow=none;html=1;rounded=0;strokeWidth=2;fillColor=#f8cecc;strokeColor=#b85450;" edge="1" parent="1">
          <mxGeometry width="50" height="50" relative="1" as="geometry">
            <mxPoint x="680" y="690" as="sourcePoint" />
            <mxPoint x="680" y="708.9999999999998" as="targetPoint" />
          </mxGeometry>
        </mxCell>
        <mxCell id="BxefesWGFPJ47FyZC_82-148" value="" style="curved=1;endArrow=none;html=1;strokeColor=#6c8ebf;strokeWidth=3;endFill=0;fillColor=#dae8fc;" edge="1" parent="1">
          <mxGeometry width="50" height="50" relative="1" as="geometry">
            <mxPoint x="660" y="480" as="sourcePoint" />
            <mxPoint x="710" y="470" as="targetPoint" />
            <Array as="points">
              <mxPoint x="660" y="680" />
              <mxPoint x="680" y="470" />
              <mxPoint x="690" y="490" />
              <mxPoint x="700" y="670" />
            </Array>
          </mxGeometry>
        </mxCell>
        <mxCell id="BxefesWGFPJ47FyZC_82-150" value="" style="endArrow=none;html=1;rounded=0;strokeWidth=2;fillColor=#f8cecc;strokeColor=#b85450;" edge="1" parent="1">
          <mxGeometry width="50" height="50" relative="1" as="geometry">
            <mxPoint x="680" y="690" as="sourcePoint" />
            <mxPoint x="660" y="689.9999999999998" as="targetPoint" />
            <Array as="points" />
          </mxGeometry>
        </mxCell>
        <mxCell id="BxefesWGFPJ47FyZC_82-151" value="" style="endArrow=none;html=1;rounded=0;strokeWidth=2;fillColor=#f8cecc;strokeColor=#b85450;" edge="1" parent="1">
          <mxGeometry width="50" height="50" relative="1" as="geometry">
            <mxPoint x="710" y="710" as="sourcePoint" />
            <mxPoint x="820" y="710" as="targetPoint" />
            <Array as="points">
              <mxPoint x="770" y="710" />
            </Array>
          </mxGeometry>
        </mxCell>
        <mxCell id="BxefesWGFPJ47FyZC_82-152" value="" style="endArrow=none;dashed=1;html=1;dashPattern=1 3;strokeWidth=4;rounded=0;fillColor=#f8cecc;strokeColor=#b85450;" edge="1" parent="1">
          <mxGeometry width="50" height="50" relative="1" as="geometry">
            <mxPoint x="600" y="689.9999999999998" as="sourcePoint" />
            <mxPoint x="600" y="490" as="targetPoint" />
          </mxGeometry>
        </mxCell>
        <mxCell id="BxefesWGFPJ47FyZC_82-153" value="" style="endArrow=none;html=1;strokeWidth=1;rounded=0;fillColor=#6a00ff;strokeColor=#3700CC;" edge="1" parent="1">
          <mxGeometry width="50" height="50" relative="1" as="geometry">
            <mxPoint x="400" y="760" as="sourcePoint" />
            <mxPoint x="400" y="600" as="targetPoint" />
          </mxGeometry>
        </mxCell>
        <mxCell id="BxefesWGFPJ47FyZC_82-154" value="" style="endArrow=none;html=1;strokeWidth=1;rounded=0;fillColor=#f8cecc;strokeColor=#b85450;" edge="1" parent="1">
          <mxGeometry width="50" height="50" relative="1" as="geometry">
            <mxPoint x="660" y="740" as="sourcePoint" />
            <mxPoint x="660" y="599" as="targetPoint" />
          </mxGeometry>
        </mxCell>
        <mxCell id="BxefesWGFPJ47FyZC_82-155" value="" style="endArrow=none;html=1;strokeWidth=1;rounded=0;fillColor=#f8cecc;strokeColor=#b85450;" edge="1" parent="1">
          <mxGeometry width="50" height="50" relative="1" as="geometry">
            <mxPoint x="680" y="689.9999999999998" as="sourcePoint" />
            <mxPoint x="680" y="490" as="targetPoint" />
          </mxGeometry>
        </mxCell>
        <mxCell id="BxefesWGFPJ47FyZC_82-156" value="" style="endArrow=none;html=1;strokeWidth=1;rounded=0;fillColor=#f8cecc;strokeColor=#b85450;" edge="1" parent="1">
          <mxGeometry width="50" height="50" relative="1" as="geometry">
            <mxPoint x="690" y="740" as="sourcePoint" />
            <mxPoint x="690" y="599" as="targetPoint" />
          </mxGeometry>
        </mxCell>
        <mxCell id="BxefesWGFPJ47FyZC_82-157" value="" style="endArrow=none;dashed=1;html=1;dashPattern=1 3;strokeWidth=4;rounded=0;fillColor=#f8cecc;strokeColor=#b85450;" edge="1" parent="1">
          <mxGeometry width="50" height="50" relative="1" as="geometry">
            <mxPoint x="709.41" y="684.9999999999998" as="sourcePoint" />
            <mxPoint x="709.41" y="485" as="targetPoint" />
          </mxGeometry>
        </mxCell>
        <mxCell id="BxefesWGFPJ47FyZC_82-158" value="" style="endArrow=none;html=1;rounded=0;strokeWidth=2;fillColor=#f8cecc;strokeColor=#b85450;" edge="1" parent="1">
          <mxGeometry width="50" height="50" relative="1" as="geometry">
            <mxPoint x="690" y="689.9999999999998" as="sourcePoint" />
            <mxPoint x="690" y="708.9999999999998" as="targetPoint" />
          </mxGeometry>
        </mxCell>
        <mxCell id="BxefesWGFPJ47FyZC_82-159" value="" style="endArrow=none;html=1;rounded=0;strokeWidth=2;fillColor=#f8cecc;strokeColor=#b85450;" edge="1" parent="1">
          <mxGeometry width="50" height="50" relative="1" as="geometry">
            <mxPoint x="709.41" y="689.9999999999998" as="sourcePoint" />
            <mxPoint x="709.41" y="708.9999999999998" as="targetPoint" />
          </mxGeometry>
        </mxCell>
        <mxCell id="BxefesWGFPJ47FyZC_82-160" value="" style="endArrow=none;html=1;rounded=0;strokeWidth=2;fillColor=#f8cecc;strokeColor=#b85450;" edge="1" parent="1">
          <mxGeometry width="50" height="50" relative="1" as="geometry">
            <mxPoint x="710" y="689.9999999999998" as="sourcePoint" />
            <mxPoint x="690" y="689.9999999999998" as="targetPoint" />
            <Array as="points" />
          </mxGeometry>
        </mxCell>
        <mxCell id="BxefesWGFPJ47FyZC_82-161" value="" style="endArrow=none;html=1;rounded=0;strokeWidth=2;fillColor=#f8cecc;strokeColor=#b85450;" edge="1" parent="1">
          <mxGeometry width="50" height="50" relative="1" as="geometry">
            <mxPoint x="680" y="709.9999999999998" as="sourcePoint" />
            <mxPoint x="690" y="710" as="targetPoint" />
            <Array as="points" />
          </mxGeometry>
        </mxCell>
        <mxCell id="BxefesWGFPJ47FyZC_82-183" style="edgeStyle=orthogonalEdgeStyle;curved=1;orthogonalLoop=1;jettySize=auto;html=1;fontSize=19;endArrow=classicThin;endFill=1;strokeColor=#b85450;strokeWidth=1;fillColor=#f8cecc;" edge="1" parent="1" source="BxefesWGFPJ47FyZC_82-162">
          <mxGeometry relative="1" as="geometry">
            <mxPoint x="690" y="729.9999999999998" as="targetPoint" />
            <Array as="points">
              <mxPoint x="720" y="730" />
            </Array>
          </mxGeometry>
        </mxCell>
        <mxCell id="BxefesWGFPJ47FyZC_82-162" value="To Ofthen On&lt;br&gt;Alarm" style="text;html=1;strokeColor=#b85450;fillColor=#f8cecc;align=center;verticalAlign=middle;whiteSpace=wrap;rounded=0;" vertex="1" parent="1">
          <mxGeometry x="660" y="770" width="60" height="69" as="geometry" />
        </mxCell>
        <mxCell id="BxefesWGFPJ47FyZC_82-164" value="" style="curved=1;endArrow=none;html=1;strokeColor=#3700CC;strokeWidth=4;fillColor=#6a00ff;endFill=0;" edge="1" parent="1">
          <mxGeometry width="50" height="50" relative="1" as="geometry">
            <mxPoint x="540" y="500" as="sourcePoint" />
            <mxPoint x="670" y="460" as="targetPoint" />
            <Array as="points">
              <mxPoint x="560" y="460" />
              <mxPoint x="580" y="450" />
              <mxPoint x="640" y="450" />
            </Array>
          </mxGeometry>
        </mxCell>
        <mxCell id="BxefesWGFPJ47FyZC_82-165" value="" style="endArrow=none;html=1;strokeWidth=1;curved=1;fillColor=#6a00ff;strokeColor=#3700CC;" edge="1" parent="1">
          <mxGeometry width="50" height="50" relative="1" as="geometry">
            <mxPoint x="550" y="740" as="sourcePoint" />
            <mxPoint x="550" y="480" as="targetPoint" />
          </mxGeometry>
        </mxCell>
        <mxCell id="BxefesWGFPJ47FyZC_82-166" value="" style="endArrow=none;html=1;strokeWidth=1;curved=1;fillColor=#6a00ff;strokeColor=#3700CC;" edge="1" parent="1">
          <mxGeometry width="50" height="50" relative="1" as="geometry">
            <mxPoint x="629.41" y="739.9999999999998" as="sourcePoint" />
            <mxPoint x="629.41" y="450" as="targetPoint" />
          </mxGeometry>
        </mxCell>
        <mxCell id="BxefesWGFPJ47FyZC_82-180" style="edgeStyle=orthogonalEdgeStyle;curved=1;orthogonalLoop=1;jettySize=auto;html=1;fontSize=19;endArrow=classicThin;endFill=1;strokeColor=default;strokeWidth=1;" edge="1" parent="1" source="BxefesWGFPJ47FyZC_82-167">
          <mxGeometry relative="1" as="geometry">
            <mxPoint x="630" y="729.9999999999998" as="targetPoint" />
            <Array as="points">
              <mxPoint x="590" y="760" />
              <mxPoint x="630" y="760" />
            </Array>
          </mxGeometry>
        </mxCell>
        <mxCell id="BxefesWGFPJ47FyZC_82-167" value="Overcurrent&lt;br&gt;Alarm" style="text;html=1;strokeColor=#b85450;fillColor=#f8cecc;align=center;verticalAlign=middle;whiteSpace=wrap;rounded=0;" vertex="1" parent="1">
          <mxGeometry x="550" y="765" width="80" height="69" as="geometry" />
        </mxCell>
        <mxCell id="BxefesWGFPJ47FyZC_82-173" style="edgeStyle=orthogonalEdgeStyle;curved=1;orthogonalLoop=1;jettySize=auto;html=1;fontSize=19;endArrow=classicThin;endFill=1;strokeColor=#3700CC;strokeWidth=1;fillColor=#6a00ff;" edge="1" parent="1" source="BxefesWGFPJ47FyZC_82-171">
          <mxGeometry relative="1" as="geometry">
            <mxPoint x="400" y="749.9999999999998" as="targetPoint" />
          </mxGeometry>
        </mxCell>
        <mxCell id="BxefesWGFPJ47FyZC_82-174" style="edgeStyle=orthogonalEdgeStyle;curved=1;orthogonalLoop=1;jettySize=auto;html=1;fontSize=19;endArrow=classicThin;endFill=1;strokeColor=default;strokeWidth=1;" edge="1" parent="1" source="BxefesWGFPJ47FyZC_82-171">
          <mxGeometry relative="1" as="geometry">
            <mxPoint x="410" y="749.9999999999998" as="targetPoint" />
          </mxGeometry>
        </mxCell>
        <mxCell id="BxefesWGFPJ47FyZC_82-171" value="Pump start current peak" style="text;html=1;strokeColor=#d6b656;fillColor=#fff2cc;align=center;verticalAlign=middle;whiteSpace=wrap;rounded=0;" vertex="1" parent="1">
          <mxGeometry x="340" y="770" width="60" height="59" as="geometry" />
        </mxCell>
        <mxCell id="BxefesWGFPJ47FyZC_82-172" value="" style="endArrow=none;html=1;strokeWidth=1;rounded=0;fillColor=#6a00ff;strokeColor=#3700CC;" edge="1" parent="1">
          <mxGeometry width="50" height="50" relative="1" as="geometry">
            <mxPoint x="412" y="759.9999999999998" as="sourcePoint" />
            <mxPoint x="412" y="599.9999999999998" as="targetPoint" />
          </mxGeometry>
        </mxCell>
        <mxCell id="BxefesWGFPJ47FyZC_82-178" value="" style="endArrow=classic;html=1;fontSize=19;strokeColor=#3700CC;strokeWidth=1;curved=1;fillColor=#6a00ff;" edge="1" parent="1">
          <mxGeometry width="50" height="50" relative="1" as="geometry">
            <mxPoint x="550" y="739.5" as="sourcePoint" />
            <mxPoint x="630" y="740" as="targetPoint" />
          </mxGeometry>
        </mxCell>
        <mxCell id="BxefesWGFPJ47FyZC_82-181" value="" style="endArrow=classic;html=1;fontSize=19;strokeColor=#b85450;strokeWidth=1;curved=1;fillColor=#f8cecc;" edge="1" parent="1">
          <mxGeometry width="50" height="50" relative="1" as="geometry">
            <mxPoint x="660" y="734.41" as="sourcePoint" />
            <mxPoint x="690" y="735" as="targetPoint" />
          </mxGeometry>
        </mxCell>
      </root>
    </mxGraphModel>
  </diagram>
</mxfile>
